<svg width="126" height="42" viewBox="0 0 126 42" fill="none" xmlns="http://www.w3.org/2000/svg">
<path d="M2.35209 0.0383301H0.548926C0.389355 0.0383301 0 0.118116 0 0.724488V15.5295C0 16.1391 0.389355 16.2157 0.548926 16.2157H2.35209C2.50847 16.2157 2.90101 16.1391 2.90101 15.5295V0.724488C2.90101 0.118116 2.50847 0.0383301 2.35209 0.0383301Z" fill="#5271FF"/>
<path d="M20.8993 0.0383301H19.1568C18.9781 0.0383301 18.6079 0.0989673 18.6079 0.724488V12.5104C18.6079 12.5296 18.6079 12.5296 18.6079 12.5487H18.5089C18.4898 12.5487 18.4706 12.5487 18.4483 12.4913L12.2537 1.47128C12.0973 1.17767 11.9601 0.941506 11.8229 0.765977C11.6856 0.568108 11.5484 0.411728 11.4112 0.312793C11.2548 0.19471 11.0761 0.118115 10.8623 0.0798187C10.6644 0.0574785 10.4314 0.0383301 10.1761 0.0383301H8.70485C8.13678 0.0383301 7.70593 0.236199 7.43147 0.587256C7.15701 0.960654 7.01978 1.60852 7.01978 2.56914V15.5295C7.01978 16.1391 7.40913 16.2157 7.58785 16.2157H9.33356C9.50909 16.2157 9.88249 16.1391 9.88249 15.5295V3.74677C9.88249 3.72443 9.88249 3.70529 9.88249 3.70529H9.97823C9.97823 3.70529 9.99738 3.70529 10.0389 3.76592L16.2526 14.7859C16.409 15.0987 16.5685 15.3349 16.7058 15.5104C16.843 15.7051 16.9802 15.8423 17.1366 15.9412C17.293 16.0593 17.4685 16.1168 17.6664 16.1583C17.8419 16.1966 18.0589 16.2157 18.3334 16.2157H19.7632C20.3312 16.2157 20.7621 16.021 21.0365 15.6476C21.311 15.2934 21.4514 14.6487 21.4514 13.6881V0.724488C21.4514 0.0989673 21.0589 0.0383301 20.8993 0.0383301Z" fill="#5271FF"/>
<path d="M35.0383 6.54885H29.1565C28.8629 6.54885 28.4895 6.43077 28.4895 5.47015V4.02124C28.4895 3.66699 28.5469 3.39253 28.6459 3.19785C28.7257 3.07976 28.8437 2.94253 29.1757 2.94253H37.1574C37.3138 2.94253 37.7064 2.8819 37.7064 2.27552V0.70534C37.7064 0.0989677 37.3138 0.0383301 37.1574 0.0383301H28.7065C27.6278 0.0383301 26.8427 0.392579 26.3321 1.11703C25.8215 1.82234 25.5693 2.76381 25.5693 3.90316V5.39355C25.5693 6.74672 25.8438 7.84458 26.3321 8.53073C26.9417 9.33497 27.8416 9.44987 28.665 9.44987H34.5468C34.8436 9.44987 35.2362 9.56795 35.2362 10.5286V12.2168C35.2362 12.5679 35.1755 12.8424 35.0575 13.0402C34.9809 13.1583 34.8628 13.2955 34.5277 13.2955H26.1566C25.981 13.2955 25.5885 13.353 25.5885 13.9626V15.5295C25.5885 16.1391 25.981 16.1966 26.1566 16.1966H35C36.0787 16.1966 36.883 15.8232 37.3904 15.0987C37.8819 14.3934 38.1372 13.4711 38.1372 12.3349V10.6084C38.1372 9.33497 37.8819 8.33286 37.3713 7.62756C36.8415 6.92225 36.0596 6.54885 35.0383 6.54885Z" fill="#5271FF"/>
<path d="M55.6088 1.47128C55.2163 0.979803 54.7056 0.609597 54.0769 0.373431C53.4706 0.156414 52.7238 0.0383301 51.8621 0.0383301H47.0781C46.2164 0.0383301 45.4888 0.156414 44.8824 0.373431C44.2537 0.609597 43.7431 0.979803 43.3537 1.47128C42.9803 1.95957 42.6867 2.60743 42.508 3.39253C42.3325 4.15847 42.2559 5.0776 42.2559 6.17546V10.0594C42.2559 11.1573 42.3325 12.0988 42.508 12.8647C42.6867 13.6466 42.9803 14.2945 43.3537 14.7859C43.7431 15.2934 44.2537 15.6668 44.8824 15.8838C45.4696 16.0976 46.2164 16.2157 47.0781 16.2157H51.8621C52.7238 16.2157 53.4706 16.0976 54.0769 15.8838C54.7056 15.6668 55.2163 15.2934 55.6088 14.8051C55.9982 14.2945 56.2726 13.6466 56.4514 12.8647C56.6077 12.0988 56.7067 11.1573 56.7067 10.0594V6.17546C56.7067 5.09675 56.6077 4.15847 56.4514 3.39253C56.2726 2.60743 55.9982 1.95957 55.6088 1.47128ZM53.7833 5.84355V10.4137C53.7833 10.9818 53.7642 11.47 53.6844 11.8626C53.6269 12.2168 53.5088 12.5296 53.3525 12.7275C53.2152 12.9413 53.0206 13.0785 52.7652 13.1583C52.5099 13.2541 52.1748 13.2955 51.7631 13.2955H47.177C46.7654 13.2955 46.4303 13.2541 46.1749 13.1583C45.9196 13.0785 45.7249 12.9413 45.5877 12.7275C45.4313 12.5296 45.3324 12.2168 45.2558 11.8626C45.1952 11.47 45.1569 10.9818 45.1569 10.4137V5.84355C45.1569 5.27547 45.1952 4.78399 45.2558 4.39144C45.3324 4.02124 45.4313 3.72444 45.5877 3.51061C45.7249 3.31274 45.9196 3.17551 46.1749 3.07977C46.4303 2.99998 46.7654 2.94253 47.177 2.94253H51.7631C52.1748 2.94253 52.5099 2.99998 52.7652 3.07977C53.0206 3.17551 53.2152 3.31274 53.3525 3.51061C53.5088 3.72444 53.6269 4.02124 53.6844 4.39144C53.7642 4.78399 53.7833 5.27547 53.7833 5.84355Z" fill="#5271FF"/>
<path d="M74.3721 0.0383301H72.5689C72.3902 0.0383301 72.02 0.0989677 72.02 0.70534V10.3722C72.02 10.9626 71.9785 11.47 71.9211 11.8434C71.8636 12.2168 71.7455 12.5104 71.6083 12.7275C71.4519 12.9221 71.2732 13.0594 71.0179 13.1583C70.7658 13.2349 70.4115 13.2955 69.9998 13.2955H65.7648C65.3531 13.2955 64.9989 13.2349 64.7435 13.1583C64.4882 13.0594 64.3127 12.9221 64.1563 12.7275C64.0191 12.5104 63.901 12.2168 63.8244 11.8434C63.7638 11.47 63.7255 10.9626 63.7255 10.3722V0.70534C63.7255 0.0989677 63.3521 0.0383301 63.1765 0.0383301H61.3925C61.2138 0.0383301 60.8245 0.0989677 60.8245 0.70534V10.0594C60.8245 11.1573 60.9011 12.0988 61.0766 12.8647C61.2553 13.6466 61.5489 14.2945 61.9415 14.7859C62.3117 15.2934 62.8414 15.6476 63.451 15.8838C64.0574 16.0976 64.8042 16.1966 65.6659 16.1966H70.0764C70.9413 16.1966 71.6849 16.0976 72.2945 15.8838C72.92 15.6476 73.4306 15.2934 73.8232 14.7859C74.2157 14.2945 74.4902 13.6466 74.6657 12.8647C74.8412 12.0988 74.921 11.1573 74.921 10.0594V0.70534C74.921 0.0989677 74.5476 0.0383301 74.3721 0.0383301Z" fill="#5271FF"/>
<path d="M92.4129 4.72655C92.4129 4.74569 92.4129 4.76484 92.4129 4.78399C92.4129 4.80314 92.4129 4.82229 92.4129 4.84463V4.72655ZM92.7831 15.354L89.3523 9.47221C90.3129 9.35412 91.0597 8.94243 91.548 8.27542C92.0969 7.47118 92.3937 6.31269 92.4129 4.78399C92.3937 3.25529 92.0969 2.0968 91.548 1.29575C90.9608 0.450024 89.981 0.0383301 88.647 0.0383301H79.6088C79.4301 0.0383301 79.0408 0.0989673 79.0408 0.724488V2.27552C79.0408 2.8819 79.4301 2.94253 79.6088 2.94253H88.1364C88.647 2.94253 88.9821 3.07977 89.1768 3.37338C89.3938 3.66699 89.4895 4.13613 89.4895 4.78399C89.4895 5.43185 89.3938 5.90099 89.1768 6.1978C88.9821 6.49141 88.647 6.62864 88.1364 6.62864H79.6088C79.4301 6.62864 79.0408 6.68608 79.0408 7.29565V15.5295C79.0408 16.1391 79.4301 16.2157 79.6088 16.2157H81.3929C81.5684 16.2157 81.9418 16.1391 81.9418 15.5295V9.52965H86.0779L89.6268 15.8232C89.7065 15.9412 89.764 16.0402 89.8438 16.0976C89.9427 16.1774 90.0799 16.2157 90.2555 16.2157H92.4129C92.6458 16.2157 92.8246 16.0593 92.8629 15.8232C92.882 15.6285 92.8629 15.4721 92.7831 15.354Z" fill="#5271FF"/>
<path d="M108.982 0.0383301H101.843C100.981 0.0383301 100.235 0.156414 99.6283 0.373431C98.9995 0.609597 98.4889 0.979803 98.1187 1.47128C97.7262 1.95957 97.4326 2.60743 97.2538 3.39253C97.0783 4.15847 97.0017 5.09675 97.0017 6.17546V10.0594C97.0017 11.1573 97.0783 12.0988 97.2538 12.8838C97.4326 13.6466 97.7262 14.2945 98.1187 14.8051C98.5113 15.2934 99.0187 15.6668 99.6283 15.8838C100.235 16.0976 100.981 16.2157 101.843 16.2157H108.982C109.139 16.2157 109.531 16.1391 109.531 15.5295V13.9817C109.531 13.3721 109.139 13.2955 108.982 13.2955H101.942C101.53 13.2955 101.176 13.2541 100.921 13.1583C100.665 13.0785 100.49 12.9413 100.334 12.7275C100.177 12.5296 100.078 12.236 100.002 11.8626C99.941 11.47 99.9027 10.9818 99.9027 10.3913V5.8244C99.9027 5.23717 99.941 4.74569 100.002 4.3723C100.078 3.9989 100.177 3.72444 100.334 3.51061C100.49 3.29359 100.665 3.15636 100.921 3.07977C101.176 2.98083 101.53 2.94253 101.942 2.94253H108.982C109.139 2.94253 109.531 2.86275 109.531 2.23404V0.724488C109.531 0.118116 109.139 0.0383301 108.982 0.0383301Z" fill="#5271FF"/>
<path d="M125.432 12.6859H118.529C118.117 12.6859 117.785 12.6285 117.511 12.5487C117.255 12.4498 117.08 12.3125 116.924 12.1179C116.764 11.9009 116.649 11.6072 116.588 11.237C116.569 11.1381 116.569 11.0009 116.55 10.9019C116.55 10.9019 116.569 9.49132 116.588 9.49132H125.352C125.512 9.49132 125.904 9.41153 125.904 8.80516V7.25413C125.904 6.64775 125.512 6.58712 125.352 6.58712L115.235 6.60946C114.667 6.64775 114.176 6.94137 113.901 7.43285C113.806 7.58923 113.726 7.74561 113.687 7.92114L113.649 10.3913V10.4902C113.668 11.4126 113.764 12.1977 113.901 12.8423C114.08 13.6274 114.374 14.2753 114.747 14.7636C115.136 15.2742 115.647 15.6284 116.276 15.8423C116.882 16.0784 117.61 16.1774 118.471 16.1774H125.432C125.607 16.1774 126 16.1167 126 15.5104V13.353C126 12.7466 125.607 12.6859 125.432 12.6859ZM125.451 0H114.176C114.019 0 113.649 0.0797866 113.649 0.705307V2.234C113.649 2.84357 114.019 2.90101 114.176 2.90101L125.451 2.92335C125.607 2.92335 126 2.84357 126 2.234V0.686158C126 0.0797862 125.607 0 125.451 0Z" fill="#5271FF"/>
<path d="M21.6031 32.6633C21.7467 32.6633 21.8648 32.7208 21.9605 32.8293C22.0626 32.9314 22.1137 33.0591 22.1137 33.2123C22.1137 33.3399 22.0754 33.4676 21.9988 33.5952L18.9223 38.3441V40.9994C18.9223 41.1717 18.8616 41.3153 18.7436 41.4334C18.6319 41.5451 18.4914 41.5993 18.3223 41.5993C18.1595 41.5993 18.0223 41.5451 17.9138 41.4334C17.8021 41.3153 17.7478 41.1717 17.7478 40.9994V38.3441L14.6841 33.5952C14.5979 33.4676 14.5564 33.3463 14.5564 33.225C14.5564 33.0655 14.6138 32.9314 14.7351 32.8293C14.8532 32.7208 14.9936 32.6633 15.1564 32.6633C15.2745 32.6633 15.3734 32.6952 15.45 32.7527C15.5266 32.8038 15.6032 32.8867 15.6798 32.9952L18.3606 37.2462L21.0797 32.9569C21.2073 32.7623 21.3797 32.6633 21.6031 32.6633Z" fill="#5271FF"/>
<path d="M26.0325 41.6503C25.4198 41.6503 24.8708 41.5163 24.3858 41.2418C23.907 40.9705 23.5368 40.5971 23.2751 40.1184C23.0102 39.6333 22.8794 39.0844 22.8794 38.4716C22.8794 37.8589 23.0102 37.3163 23.2751 36.8376C23.5368 36.3525 23.907 35.9759 24.3858 35.7015C24.8708 35.4302 25.4198 35.293 26.0325 35.293C26.6357 35.293 27.1751 35.4302 27.6538 35.7015C28.1293 35.9759 28.4995 36.3525 28.7644 36.8376C29.0357 37.3163 29.1729 37.8589 29.1729 38.4716C29.1729 39.0844 29.0389 39.6333 28.7772 40.1184C28.5123 40.5971 28.1421 40.9705 27.6665 41.2418C27.1878 41.5163 26.6453 41.6503 26.0325 41.6503ZM26.0325 40.6163C26.4219 40.6163 26.7729 40.5269 27.0793 40.3482C27.3857 40.1631 27.6219 39.9078 27.7942 39.5823C27.9633 39.2599 28.0495 38.8897 28.0495 38.4716C28.0495 38.0631 27.9633 37.6993 27.7942 37.3738C27.6219 37.0419 27.3857 36.7866 27.0793 36.6078C26.7729 36.4227 26.4219 36.327 26.0325 36.327C25.64 36.327 25.2921 36.4227 24.9857 36.6078C24.6794 36.7866 24.4368 37.0419 24.2581 37.3738C24.0794 37.6993 23.99 38.0631 23.99 38.4716C23.99 38.8897 24.0794 39.2599 24.2581 39.5823C24.4368 39.9078 24.6794 40.1631 24.9857 40.3482C25.2921 40.5269 25.64 40.6163 26.0325 40.6163Z" fill="#5271FF"/>
<path d="M36.0724 35.3315C36.2415 35.3315 36.3787 35.389 36.4809 35.4975C36.5894 35.5996 36.6468 35.74 36.6468 35.9188V41.0123C36.6468 41.1846 36.5894 41.3251 36.4809 41.4336C36.3787 41.5453 36.2415 41.5995 36.0724 41.5995C35.9 41.5995 35.7596 41.5453 35.6511 41.4336C35.5394 41.3251 35.4851 41.1846 35.4851 41.0123V40.8846C35.2362 41.1336 34.949 41.3251 34.6171 41.4591C34.2852 41.5868 33.9277 41.6506 33.5448 41.6506C33.015 41.6506 32.5394 41.5421 32.115 41.3187C31.6969 41.0889 31.3682 40.757 31.132 40.3229C30.9022 39.8825 30.7874 39.3496 30.7874 38.7272V35.9188C30.7874 35.7496 30.8416 35.6092 30.9533 35.4975C31.0618 35.389 31.199 35.3315 31.3618 35.3315C31.531 35.3315 31.6714 35.389 31.7831 35.4975C31.8916 35.6092 31.949 35.7496 31.949 35.9188V38.7272C31.949 39.3496 32.115 39.8187 32.4469 40.1315C32.7788 40.4474 33.2192 40.6038 33.7745 40.6038C34.0873 40.6038 34.3777 40.54 34.6426 40.4123C34.9043 40.2846 35.1086 40.1123 35.2554 39.8889C35.4085 39.6687 35.4851 39.4166 35.4851 39.1357V35.9188C35.4851 35.74 35.5394 35.5996 35.6511 35.4975C35.7596 35.389 35.9 35.3315 36.0724 35.3315Z" fill="#5271FF"/>
<path d="M41.7752 35.2803C42.1741 35.2803 42.4901 35.3409 42.7199 35.459C42.9496 35.5803 43.0645 35.7335 43.0645 35.9186C43.0645 35.9696 43.0582 36.0079 43.0518 36.0335C42.9816 36.2728 42.8284 36.3909 42.5922 36.3909C42.5571 36.3909 42.5028 36.3877 42.4263 36.3781C42.1199 36.3207 41.8709 36.2888 41.6858 36.2888C41.1305 36.2888 40.6837 36.4164 40.3454 36.6717C40.0135 36.9207 39.8476 37.259 39.8476 37.693V41.0249C39.8476 41.2131 39.7997 41.3568 39.7072 41.4589C39.6114 41.5546 39.4678 41.5993 39.2731 41.5993C39.0944 41.5993 38.954 41.5546 38.8518 41.4589C38.7561 41.3663 38.7114 41.2227 38.7114 41.0249V35.9186C38.7114 35.7335 38.7561 35.593 38.8518 35.4973C38.954 35.3952 39.0944 35.3441 39.2731 35.3441C39.6561 35.3441 39.8476 35.5356 39.8476 35.9186V36.1356C40.0774 35.8643 40.3582 35.6569 40.6901 35.5101C41.0284 35.3569 41.3922 35.2803 41.7752 35.2803Z" fill="#5271FF"/>
<path d="M54.4083 40.7696C54.4402 40.8653 54.4593 40.9451 54.4593 41.0121C54.4593 41.1749 54.3987 41.3153 54.2806 41.4334C54.1689 41.5451 54.0317 41.5993 53.8721 41.5993C53.7508 41.5993 53.6423 41.5706 53.5402 41.51C53.4381 41.443 53.3647 41.3504 53.3232 41.2291L52.6849 39.6334H48.5743L47.9233 41.2291C47.8722 41.3504 47.7956 41.443 47.6935 41.51C47.5914 41.5706 47.4828 41.5993 47.3743 41.5993C47.202 41.5993 47.0616 41.5419 46.9531 41.4206C46.8414 41.3025 46.7871 41.1621 46.7871 40.9994C46.7871 40.9228 46.8063 40.8398 46.8509 40.744L50.0551 33.0718C50.1732 32.8006 50.3615 32.6633 50.6168 32.6633C50.8977 32.6633 51.0828 32.8006 51.1785 33.0718L54.4083 40.7696ZM48.97 38.6505H52.2764L50.6424 34.5782L48.97 38.6505Z" fill="#5271FF"/>
<path d="M56.3553 41.5993C56.183 41.5993 56.0425 41.5451 55.934 41.4334C55.8223 41.3153 55.7681 41.1717 55.7681 40.9994V33.2633C55.7681 33.0846 55.8223 32.941 55.934 32.8293C56.0425 32.7208 56.183 32.6633 56.3553 32.6633C56.534 32.6633 56.6776 32.7208 56.7893 32.8293C56.8978 32.941 56.9553 33.0846 56.9553 33.2633V40.9994C56.9553 41.1717 56.8978 41.3153 56.7893 41.4334C56.6776 41.5451 56.534 41.5993 56.3553 41.5993Z" fill="#5271FF"/>
<path d="M63.18 41.5993C63.0077 41.5993 62.8672 41.5451 62.7587 41.4334C62.647 41.3153 62.5928 41.1717 62.5928 40.9994V33.2633C62.5928 33.0846 62.647 32.941 62.7587 32.8293C62.8672 32.7208 63.0077 32.6633 63.18 32.6633H65.4651C66.0331 32.6633 66.5406 32.791 66.9842 33.0463C67.4342 33.2952 67.782 33.6431 68.031 34.0931C68.2767 34.5463 68.4012 35.0569 68.4012 35.625C68.4012 36.1867 68.2767 36.6845 68.031 37.1186C67.782 37.5526 67.4342 37.8941 66.9842 38.1398C66.5406 38.3792 66.0331 38.4973 65.4651 38.4973H63.78V40.9994C63.78 41.1717 63.7225 41.3153 63.614 41.4334C63.5023 41.5451 63.3587 41.5993 63.18 41.5993ZM65.4651 37.3994C65.9821 37.3994 66.4097 37.2335 66.7416 36.9016C67.0799 36.5696 67.2523 36.1452 67.2523 35.625C67.2523 35.0888 67.0799 34.6484 66.7416 34.2973C66.4097 33.9399 65.9821 33.7612 65.4651 33.7612H63.78V37.3994H65.4651Z" fill="#5271FF"/>
<path d="M71.0807 41.5993C70.7552 41.5993 70.4616 41.51 70.1999 41.3313C69.935 41.1525 69.7307 40.9036 69.5871 40.5781C69.4403 40.2557 69.3701 39.8887 69.3701 39.4802V33.2378C69.3701 33.0686 69.4212 32.9314 69.5233 32.8293C69.6318 32.7208 69.7722 32.6633 69.9446 32.6633C70.1041 32.6633 70.2382 32.7208 70.3403 32.8293C70.4488 32.9314 70.5063 33.0686 70.5063 33.2378V39.4802C70.5063 39.7611 70.5573 39.9972 70.6595 40.1823C70.768 40.3611 70.9084 40.4504 71.0807 40.4504H71.3743C71.518 40.4504 71.636 40.5079 71.7318 40.6164C71.8339 40.7185 71.885 40.8557 71.885 41.0249C71.885 41.1972 71.8116 41.3376 71.6679 41.4462C71.5211 41.5483 71.336 41.5993 71.1063 41.5993H71.0807Z" fill="#5271FF"/>
<path d="M75.8636 35.293C76.4508 35.293 76.9806 35.4334 77.4593 35.7142C77.9348 35.9951 78.3082 36.3781 78.5827 36.8632C78.8635 37.3483 79.004 37.8844 79.004 38.4716V41.0248C79.004 41.1971 78.9465 41.3375 78.838 41.4461C78.7263 41.5578 78.5891 41.612 78.4295 41.612C78.2572 41.612 78.1167 41.5578 78.0082 41.4461C77.8965 41.3375 77.8423 41.1971 77.8423 41.0248V40.6035C77.5678 40.9354 77.2423 41.1971 76.8593 41.3822C76.4827 41.5609 76.0742 41.6503 75.6338 41.6503C75.0785 41.6503 74.5806 41.5163 74.1402 41.2418C73.6966 40.961 73.3487 40.578 73.0934 40.0929C72.8381 39.6078 72.7104 39.0684 72.7104 38.4716C72.7104 37.8844 72.8445 37.3483 73.119 36.8632C73.3902 36.3781 73.77 35.9951 74.2551 35.7142C74.7402 35.4334 75.2764 35.293 75.8636 35.293ZM75.8636 40.6163C76.2466 40.6163 76.5912 40.5237 76.8976 40.3354C77.204 40.1503 77.4402 39.895 77.6125 39.5695C77.7912 39.2472 77.8806 38.8801 77.8806 38.4716C77.8806 38.0727 77.7912 37.7121 77.6125 37.3865C77.4402 37.0546 77.204 36.7961 76.8976 36.6078C76.5912 36.4227 76.2466 36.327 75.8636 36.327C75.4806 36.327 75.1296 36.4227 74.8168 36.6078C74.5104 36.7961 74.2679 37.0546 74.0891 37.3865C73.9104 37.7121 73.8211 38.0727 73.8211 38.4716C73.8211 38.8801 73.9104 39.2472 74.0891 39.5695C74.2679 39.895 74.5104 40.1503 74.8168 40.3354C75.1296 40.5237 75.4806 40.6163 75.8636 40.6163Z" fill="#5271FF"/>
<path d="M83.4012 40.4508C83.5448 40.4508 83.6629 40.5082 83.7586 40.6167C83.8512 40.7189 83.899 40.8561 83.899 41.0252C83.899 41.1976 83.8352 41.338 83.7075 41.4465C83.5799 41.5486 83.4171 41.5997 83.2224 41.5997H83.0182C82.6416 41.5997 82.2969 41.5039 81.9842 41.3061C81.6778 41.1114 81.4352 40.8465 81.2565 40.5146C81.0842 40.1763 81.0012 39.7965 81.0012 39.3785V36.5572H80.4778C80.315 36.5572 80.1842 36.5125 80.0821 36.4168C79.9863 36.3243 79.9417 36.2094 79.9417 36.0721C79.9417 35.9189 79.9863 35.8009 80.0821 35.7147C80.1842 35.6221 80.315 35.5743 80.4778 35.5743H81.0012V33.9275C81.0012 33.7583 81.0523 33.6211 81.1544 33.519C81.2629 33.4105 81.4033 33.353 81.5757 33.353C81.7448 33.353 81.882 33.4105 81.9842 33.519C82.0927 33.6211 82.1501 33.7583 82.1501 33.9275V35.5743H83.1203C83.2799 35.5743 83.4075 35.6221 83.5033 35.7147C83.6054 35.8009 83.6565 35.9189 83.6565 36.0721C83.6565 36.2094 83.6054 36.3243 83.5033 36.4168C83.4075 36.5125 83.2799 36.5572 83.1203 36.5572H82.1501V39.3785C82.1501 39.6848 82.2299 39.9401 82.3927 40.1444C82.5618 40.3486 82.7693 40.4508 83.0182 40.4508H83.4012Z" fill="#5271FF"/>
<path d="M88.0236 33.7229C87.5959 33.7229 87.2513 33.8633 86.9896 34.1442C86.7343 34.425 86.6066 34.8016 86.6066 35.2675V35.5739H87.7683C87.9278 35.5739 88.0555 35.6218 88.1512 35.7143C88.2534 35.8005 88.3044 35.9186 88.3044 36.0718C88.3044 36.209 88.2534 36.3239 88.1512 36.4165C88.0555 36.5122 87.9278 36.5569 87.7683 36.5569H86.6066V41.0121C86.6066 41.1908 86.5491 41.3376 86.4406 41.4462C86.3385 41.5483 86.1917 41.5993 86.0066 41.5993C85.8534 41.5993 85.7194 41.5483 85.6109 41.4462C85.4992 41.3376 85.4449 41.1908 85.4449 41.0121V36.5569H84.947C84.7843 36.5569 84.6534 36.5122 84.5513 36.4165C84.4556 36.3239 84.4109 36.209 84.4109 36.0718C84.4109 35.9186 84.4556 35.8005 84.5513 35.7143C84.6534 35.6218 84.7843 35.5739 84.947 35.5739H85.4449V35.3824C85.4449 34.8399 85.5502 34.3612 85.7641 33.9527C85.9843 33.5442 86.2906 33.2314 86.6832 33.008C87.0725 32.7782 87.5193 32.6633 88.0236 32.6633C88.1927 32.6633 88.3332 32.7144 88.4449 32.8165C88.5534 32.9186 88.6108 33.0431 88.6108 33.1867C88.6108 33.3399 88.5534 33.4676 88.4449 33.5697C88.3332 33.6718 88.1927 33.7229 88.0236 33.7229Z" fill="#5271FF"/>
<path d="M92.3594 41.6503C91.7467 41.6503 91.1978 41.5163 90.7127 41.2418C90.2339 40.9705 89.8637 40.5971 89.602 40.1184C89.3371 39.6333 89.2063 39.0844 89.2063 38.4716C89.2063 37.8589 89.3371 37.3163 89.602 36.8376C89.8637 36.3525 90.2339 35.9759 90.7127 35.7015C91.1978 35.4302 91.7467 35.293 92.3594 35.293C92.9626 35.293 93.502 35.4302 93.9807 35.7015C94.4562 35.9759 94.8264 36.3525 95.0913 36.8376C95.3626 37.3163 95.4998 37.8589 95.4998 38.4716C95.4998 39.0844 95.3658 39.6333 95.1041 40.1184C94.8392 40.5971 94.469 40.9705 93.9934 41.2418C93.5147 41.5163 92.9722 41.6503 92.3594 41.6503ZM92.3594 40.6163C92.7488 40.6163 93.0998 40.5269 93.4062 40.3482C93.7126 40.1631 93.9488 39.9078 94.1211 39.5823C94.2903 39.2599 94.3764 38.8897 94.3764 38.4716C94.3764 38.0631 94.2903 37.6993 94.1211 37.3738C93.9488 37.0419 93.7126 36.7866 93.4062 36.6078C93.0998 36.4227 92.7488 36.327 92.3594 36.327C91.9669 36.327 91.619 36.4227 91.3126 36.6078C91.0063 36.7866 90.7637 37.0419 90.585 37.3738C90.4063 37.6993 90.3169 38.0631 90.3169 38.4716C90.3169 38.8897 90.4063 39.2599 90.585 39.5823C90.7637 39.9078 91.0063 40.1631 91.3126 40.3482C91.619 40.5269 91.9669 40.6163 92.3594 40.6163Z" fill="#5271FF"/>
<path d="M100.306 35.2803C100.705 35.2803 101.021 35.3409 101.25 35.459C101.48 35.5803 101.595 35.7335 101.595 35.9186C101.595 35.9696 101.589 36.0079 101.582 36.0335C101.512 36.2728 101.359 36.3909 101.123 36.3909C101.088 36.3909 101.033 36.3877 100.957 36.3781C100.65 36.3207 100.401 36.2888 100.216 36.2888C99.661 36.2888 99.2142 36.4164 98.876 36.6717C98.544 36.9207 98.3781 37.259 98.3781 37.693V41.0249C98.3781 41.2131 98.3302 41.3568 98.2377 41.4589C98.1419 41.5546 97.9983 41.5993 97.8036 41.5993C97.6249 41.5993 97.4845 41.5546 97.3824 41.4589C97.2866 41.3663 97.2419 41.2227 97.2419 41.0249V35.9186C97.2419 35.7335 97.2866 35.593 97.3824 35.4973C97.4845 35.3952 97.6249 35.3441 97.8036 35.3441C98.1866 35.3441 98.3781 35.5356 98.3781 35.9186V36.1356C98.6079 35.8643 98.8887 35.6569 99.2206 35.5101C99.5589 35.3569 99.9227 35.2803 100.306 35.2803Z" fill="#5271FF"/>
<path d="M109.372 35.2803C110.036 35.2803 110.572 35.5037 110.981 35.9441C111.389 36.3781 111.593 36.9845 111.593 37.7568V41.0249C111.593 41.1972 111.536 41.3376 111.427 41.4461C111.325 41.5578 111.185 41.6121 111.006 41.6121C110.834 41.6121 110.693 41.5578 110.585 41.4461C110.473 41.3376 110.419 41.1972 110.419 41.0249V37.7568C110.419 37.2909 110.304 36.9366 110.074 36.6973C109.845 36.4611 109.532 36.3398 109.142 36.3398C108.74 36.3398 108.415 36.4771 108.159 36.7483C107.904 37.0228 107.776 37.3739 107.776 37.8079V41.0249C107.776 41.1972 107.719 41.3376 107.611 41.4461C107.508 41.5578 107.371 41.6121 107.202 41.6121C107.03 41.6121 106.889 41.5578 106.781 41.4461C106.669 41.3376 106.615 41.1972 106.615 41.0249V37.7568C106.615 37.2909 106.494 36.9366 106.257 36.6973C106.028 36.4611 105.721 36.3398 105.338 36.3398C104.93 36.3398 104.598 36.4771 104.343 36.7483C104.087 37.0228 103.96 37.3739 103.96 37.8079V41.0249C103.96 41.1972 103.902 41.3376 103.794 41.4461C103.691 41.5578 103.551 41.6121 103.372 41.6121C103.21 41.6121 103.072 41.5578 102.964 41.4461C102.852 41.3376 102.798 41.1972 102.798 41.0249V35.9313C102.798 35.7622 102.852 35.6249 102.964 35.5228C103.072 35.4143 103.21 35.3569 103.372 35.3569C103.541 35.3569 103.679 35.4079 103.781 35.5101C103.889 35.6122 103.95 35.7494 103.96 35.9186C104.154 35.7143 104.387 35.5579 104.662 35.4462C104.942 35.3377 105.239 35.2803 105.555 35.2803C105.945 35.2803 106.296 35.3633 106.602 35.5228C106.915 35.676 107.17 35.8994 107.368 36.1866C107.598 35.9058 107.882 35.6856 108.223 35.5228C108.571 35.3633 108.954 35.2803 109.372 35.2803Z" fill="#5271FF"/>
</svg>
