<svg width="126" height="17" viewBox="0 0 126 17" fill="none" xmlns="http://www.w3.org/2000/svg">
<path d="M2.35209 0.304199H0.548926C0.389355 0.304199 0 0.386279 0 1.01008V16.2407C0 16.8678 0.389355 16.9466 0.548926 16.9466H2.35209C2.50847 16.9466 2.90101 16.8678 2.90101 16.2407V1.01008C2.90101 0.386279 2.50847 0.304199 2.35209 0.304199Z" fill="#5271FF"/>
<path d="M20.8993 0.304199H19.1568C18.9781 0.304199 18.6079 0.366579 18.6079 1.01008V13.1348C18.6079 13.1545 18.6079 13.1545 18.6079 13.1742H18.5089C18.4898 13.1742 18.4706 13.1742 18.4483 13.1151L12.2537 1.77834C12.0973 1.47629 11.9601 1.23334 11.8229 1.05276C11.6856 0.849205 11.5484 0.68833 11.4112 0.586551C11.2548 0.465074 11.0761 0.386277 10.8623 0.34688C10.6644 0.323898 10.4314 0.304199 10.1761 0.304199H8.70485C8.13678 0.304199 7.70593 0.507756 7.43147 0.868904C7.15701 1.25303 7.01978 1.91952 7.01978 2.90776V16.2407C7.01978 16.8678 7.40913 16.9466 7.58785 16.9466H9.33356C9.50909 16.9466 9.88249 16.8678 9.88249 16.2407V4.11924C9.88249 4.09625 9.88249 4.07656 9.88249 4.07656H9.97823C9.97823 4.07656 9.99738 4.07656 10.0389 4.13894L16.2526 15.4757C16.409 15.7975 16.5685 16.0405 16.7058 16.221C16.843 16.4213 16.9802 16.5624 17.1366 16.6642C17.293 16.7857 17.4685 16.8448 17.6664 16.8875C17.8419 16.9269 18.0589 16.9466 18.3334 16.9466H19.7632C20.3312 16.9466 20.7621 16.7463 21.0365 16.3621C21.311 15.9978 21.4514 15.3345 21.4514 14.3463V1.01008C21.4514 0.366579 21.0589 0.304199 20.8993 0.304199Z" fill="#5271FF"/>
<path d="M35.0383 7.00186H29.1565C28.8629 7.00186 28.4895 6.88039 28.4895 5.89215V4.4016C28.4895 4.03716 28.5469 3.75481 28.6459 3.55454C28.7257 3.43305 28.8437 3.29188 29.1757 3.29188H37.1574C37.3138 3.29188 37.7064 3.22951 37.7064 2.6057V0.990382C37.7064 0.36658 37.3138 0.304199 37.1574 0.304199H28.7065C27.6278 0.304199 26.8427 0.668631 26.3321 1.41391C25.8215 2.13949 25.5693 3.10802 25.5693 4.28012V5.81335C25.5693 7.20542 25.8438 8.33483 26.3321 9.04071C26.9417 9.86807 27.8416 9.98627 28.665 9.98627H34.5468C34.8436 9.98627 35.2362 10.1077 35.2362 11.096V12.8327C35.2362 13.1939 35.1755 13.4763 35.0575 13.6798C34.9809 13.8013 34.8628 13.9424 34.5277 13.9424H26.1566C25.981 13.9424 25.5885 14.0016 25.5885 14.6287V16.2407C25.5885 16.8678 25.981 16.9269 26.1566 16.9269H35C36.0787 16.9269 36.883 16.5428 37.3904 15.7975C37.8819 15.0719 38.1372 14.1231 38.1372 12.9542V11.1781C38.1372 9.86807 37.8819 8.83715 37.3713 8.11158C36.8415 7.38599 36.0596 7.00186 35.0383 7.00186Z" fill="#5271FF"/>
<path d="M55.6088 1.77834C55.2163 1.27273 54.7056 0.891887 54.0769 0.648932C53.4706 0.425677 52.7238 0.304199 51.8621 0.304199H47.0781C46.2164 0.304199 45.4888 0.425677 44.8824 0.648932C44.2537 0.891887 43.7431 1.27273 43.3537 1.77834C42.9803 2.28066 42.6867 2.94715 42.508 3.75481C42.3325 4.54277 42.2559 5.48832 42.2559 6.61774V10.6133C42.2559 11.7428 42.3325 12.7113 42.508 13.4993C42.6867 14.3036 42.9803 14.9702 43.3537 15.4757C43.7431 15.9978 44.2537 16.3819 44.8824 16.6051C45.4696 16.8251 46.2164 16.9466 47.0781 16.9466H51.8621C52.7238 16.9466 53.4706 16.8251 54.0769 16.6051C54.7056 16.3819 55.2163 15.9978 55.6088 15.4954C55.9982 14.9702 56.2726 14.3036 56.4514 13.4993C56.6077 12.7113 56.7067 11.7428 56.7067 10.6133V6.61774C56.7067 5.50802 56.6077 4.54277 56.4514 3.75481C56.2726 2.94715 55.9982 2.28066 55.6088 1.77834ZM53.7833 6.27629V10.9778C53.7833 11.5622 53.7642 12.0645 53.6844 12.4684C53.6269 12.8327 53.5088 13.1545 53.3525 13.3581C53.2152 13.5781 53.0206 13.7192 52.7652 13.8013C52.5099 13.8998 52.1748 13.9424 51.7631 13.9424H47.177C46.7654 13.9424 46.4303 13.8998 46.1749 13.8013C45.9196 13.7192 45.7249 13.5781 45.5877 13.3581C45.4313 13.1545 45.3324 12.8327 45.2558 12.4684C45.1952 12.0645 45.1569 11.5622 45.1569 10.9778V6.27629C45.1569 5.69188 45.1952 5.18627 45.2558 4.78244C45.3324 4.4016 45.4313 4.09626 45.5877 3.87629C45.7249 3.67273 45.9196 3.53156 46.1749 3.43306C46.4303 3.35098 46.7654 3.29188 47.177 3.29188H51.7631C52.1748 3.29188 52.5099 3.35098 52.7652 3.43306C53.0206 3.53156 53.2152 3.67273 53.3525 3.87629C53.5088 4.09626 53.6269 4.4016 53.6844 4.78244C53.7642 5.18627 53.7833 5.69188 53.7833 6.27629Z" fill="#5271FF"/>
<path d="M74.3721 0.304199H72.5689C72.3902 0.304199 72.02 0.36658 72.02 0.990382V10.9351C72.02 11.5425 71.9785 12.0645 71.9211 12.4486C71.8636 12.8327 71.7455 13.1348 71.6083 13.3581C71.4519 13.5583 71.2732 13.6996 71.0179 13.8013C70.7658 13.8801 70.4115 13.9424 69.9998 13.9424H65.7648C65.3531 13.9424 64.9989 13.8801 64.7435 13.8013C64.4882 13.6996 64.3127 13.5583 64.1563 13.3581C64.0191 13.1348 63.901 12.8327 63.8244 12.4486C63.7638 12.0645 63.7255 11.5425 63.7255 10.9351V0.990382C63.7255 0.36658 63.3521 0.304199 63.1765 0.304199H61.3925C61.2138 0.304199 60.8245 0.36658 60.8245 0.990382V10.6133C60.8245 11.7428 60.9011 12.7113 61.0766 13.4993C61.2553 14.3036 61.5489 14.9702 61.9415 15.4757C62.3117 15.9978 62.8414 16.3621 63.451 16.6051C64.0574 16.8251 64.8042 16.9269 65.6659 16.9269H70.0764C70.9413 16.9269 71.6849 16.8251 72.2945 16.6051C72.92 16.3621 73.4306 15.9978 73.8232 15.4757C74.2157 14.9702 74.4902 14.3036 74.6657 13.4993C74.8412 12.7113 74.921 11.7428 74.921 10.6133V0.990382C74.921 0.36658 74.5476 0.304199 74.3721 0.304199Z" fill="#5271FF"/>
<path d="M92.4129 5.12718C92.4129 5.14687 92.4129 5.16657 92.4129 5.18627C92.4129 5.20597 92.4129 5.22567 92.4129 5.24865V5.12718ZM92.7831 16.0601L89.3523 10.0092C90.3129 9.88777 91.0597 9.46424 91.548 8.77806C92.0969 7.9507 92.3937 6.75891 92.4129 5.18627C92.3937 3.61363 92.0969 2.42184 91.548 1.59776C90.9608 0.727727 89.981 0.304199 88.647 0.304199H79.6088C79.4301 0.304199 79.0408 0.366579 79.0408 1.01008V2.6057C79.0408 3.22951 79.4301 3.29188 79.6088 3.29188H88.1364C88.647 3.29188 88.9821 3.43306 89.1768 3.73511C89.3938 4.03716 89.4895 4.51979 89.4895 5.18627C89.4895 5.85275 89.3938 6.33538 89.1768 6.64072C88.9821 6.94277 88.647 7.08394 88.1364 7.08394H79.6088C79.4301 7.08394 79.0408 7.14303 79.0408 7.77013V16.2407C79.0408 16.8678 79.4301 16.9466 79.6088 16.9466H81.3929C81.5684 16.9466 81.9418 16.8678 81.9418 16.2407V10.0683H86.0779L89.6268 16.5428C89.7065 16.6642 89.764 16.766 89.8438 16.8251C89.9427 16.9072 90.0799 16.9466 90.2555 16.9466H92.4129C92.6458 16.9466 92.8246 16.7857 92.8629 16.5428C92.882 16.3425 92.8629 16.1816 92.7831 16.0601Z" fill="#5271FF"/>
<path d="M108.982 0.304199H101.843C100.981 0.304199 100.235 0.425677 99.6283 0.648932C98.9995 0.891887 98.4889 1.27273 98.1187 1.77834C97.7262 2.28066 97.4326 2.94715 97.2538 3.75481C97.0783 4.54277 97.0017 5.50802 97.0017 6.61774V10.6133C97.0017 11.7428 97.0783 12.7113 97.2538 13.5189C97.4326 14.3036 97.7262 14.9702 98.1187 15.4954C98.5113 15.9978 99.0187 16.3819 99.6283 16.6051C100.235 16.8251 100.981 16.9466 101.843 16.9466H108.982C109.139 16.9466 109.531 16.8678 109.531 16.2407V14.6484C109.531 14.0212 109.139 13.9424 108.982 13.9424H101.942C101.53 13.9424 101.176 13.8998 100.921 13.8013C100.665 13.7192 100.49 13.5781 100.334 13.3581C100.177 13.1545 100.078 12.8525 100.002 12.4684C99.941 12.0645 99.9027 11.5622 99.9027 10.9548V6.25659C99.9027 5.65248 99.941 5.14687 100.002 4.76275C100.078 4.37861 100.177 4.09626 100.334 3.87629C100.49 3.65303 100.665 3.51185 100.921 3.43306C101.176 3.33128 101.53 3.29188 101.942 3.29188H108.982C109.139 3.29188 109.531 3.20981 109.531 2.56302V1.01008C109.531 0.386279 109.139 0.304199 108.982 0.304199Z" fill="#5271FF"/>
<path d="M125.432 13.3153H118.529C118.117 13.3153 117.785 13.2563 117.511 13.1742C117.255 13.0724 117.08 12.9312 116.924 12.731C116.764 12.5078 116.649 12.2056 116.588 11.8248C116.569 11.723 116.569 11.5819 116.55 11.48C116.55 11.48 116.569 10.0289 116.588 10.0289H125.352C125.512 10.0289 125.904 9.94683 125.904 9.32303V7.72742C125.904 7.10361 125.512 7.04123 125.352 7.04123L115.235 7.06421C114.667 7.10361 114.176 7.40567 113.901 7.91127C113.806 8.07215 113.726 8.23302 113.687 8.4136L113.649 10.9548V11.0565C113.668 12.0054 113.764 12.8131 113.901 13.4762C114.08 14.2839 114.374 14.9504 114.747 15.4527C115.136 15.978 115.647 16.3424 116.276 16.5624C116.882 16.8053 117.61 16.9072 118.471 16.9072H125.432C125.607 16.9072 126 16.8447 126 16.221V14.0016C126 13.3778 125.607 13.3153 125.432 13.3153ZM125.451 0.264771H114.176C114.019 0.264771 113.649 0.346851 113.649 0.990351V2.56299C113.649 3.19008 114.019 3.24917 114.176 3.24917L125.451 3.27215C125.607 3.27215 126 3.19008 126 2.56299V0.970652C126 0.34685 125.607 0.264771 125.451 0.264771Z" fill="#5271FF"/>
</svg>
