<svg width="72" height="72" viewBox="0 0 72 72" fill="none" xmlns="http://www.w3.org/2000/svg">
<path d="M72 36C72 55.8823 55.8823 72 36 72C16.1177 72 0 55.8823 0 36C0 16.1177 16.1177 0 36 0C55.8823 0 72 16.1177 72 36ZM10.8 36C10.8 49.9176 22.0824 61.2 36 61.2C49.9176 61.2 61.2 49.9176 61.2 36C61.2 22.0824 49.9176 10.8 36 10.8C22.0824 10.8 10.8 22.0824 10.8 36Z" fill="#767676"/>
<path d="M72 36C72 31.2724 71.0688 26.5911 69.2597 22.2234C67.4505 17.8557 64.7988 13.8871 61.4558 10.5442C58.1129 7.20125 54.1443 4.54951 49.7766 2.74034C45.4089 0.931167 40.7276 -2.06649e-07 36 0L36 10.8C39.3093 10.8 42.5862 11.4518 45.6436 12.7182C48.701 13.9847 51.4791 15.8409 53.8191 18.1809C56.1591 20.5209 58.0153 23.299 59.2818 26.3564C60.5482 29.4138 61.2 32.6907 61.2 36H72Z" fill="#D9D9D9"/>
</svg>
